HIERARCHY
ROOT Hips
{
	OFFSET 0.00 0.00 0.00
	CHANNELS 6 Xposition Yposition Zposition Xrotation Yrotation Zrotation
	JOINT LeftUpLeg
	{
		OFFSET 3.25772 0.00000 0.00000
		CHANNELS 3 Xrotation Yrotation Zrotation
		JOINT LeftLeg
		{
			OFFSET 0.00000 -15.35355 0.00000
			CHANNELS 3 Xrotation Yrotation Zrotation
			JOINT LeftFoot
			{
				OFFSET 0.00000 -16.48949 0.00000
				CHANNELS 3 Xrotation Yrotation Zrotation
				JOINT LeftToeBase
				{
					OFFSET 0.00000 -1.72224 6.42750
					CHANNELS 3 Xrotation Yrotation Zrotation
					End Site
					{
						OFFSET 0.00000 0.00000 2.95275
					}
				}
			}
		}
	}
	JOINT RightUpLeg
	{
		OFFSET -3.25772 0.00000 0.00000
		CHANNELS 3 Xrotation Yrotation Zrotation
		JOINT RightLeg
		{
			OFFSET 0.00000 -15.35355 0.00000
			CHANNELS 3 Xrotation Yrotation Zrotation
			JOINT RightFoot
			{
				OFFSET 0.00000 -16.48949 0.00000
				CHANNELS 3 Xrotation Yrotation Zrotation
				JOINT RightToeBase
				{
					OFFSET 0.00000 -1.72224 6.42750
					CHANNELS 3 Xrotation Yrotation Zrotation
					End Site
					{
						OFFSET 0.00000 0.00000 2.95275
					}
				}
			}
		}
	}
	JOINT Spine
	{
		OFFSET 0.00000 0.03937 0.00000
		CHANNELS 3 Xrotation Yrotation Zrotation
		JOINT Spine1
		{
			OFFSET 0.00000 10.14986 0.00000
			CHANNELS 3 Xrotation Yrotation Zrotation
			JOINT Neck
			{
				OFFSET 0.00000 9.84250 0.00000
				CHANNELS 3 Xrotation Yrotation Zrotation
				JOINT Head
				{
					OFFSET 0.00000 4.54023 0.00000
					CHANNELS 3 Xrotation Yrotation Zrotation
					End Site
					{
						OFFSET 0.00000 4.52755 0.00000
					}
				}
			}
			JOINT LeftShoulder
			{
				OFFSET 0.00000 9.84250 0.00000
				CHANNELS 3 Xrotation Yrotation Zrotation
				JOINT LeftArm
				{
					OFFSET 7.21510 -0.00003 0.00000
					CHANNELS 3 Xrotation Yrotation Zrotation
					JOINT LeftForeArm
					{
						OFFSET 10.66411 -0.00004 0.00000
						CHANNELS 3 Xrotation Yrotation Zrotation
						JOINT LeftHand
						{
							OFFSET 8.93656 -0.00003 0.00000
							CHANNELS 3 Xrotation Yrotation Zrotation
							JOINT L_Wrist_End
							{
								OFFSET 3.93700 -0.00001 0.00000
								CHANNELS 3 Xrotation Yrotation Zrotation
							}
						}
					}
				}
			}
			JOINT RightShoulder
			{
				OFFSET 0.00000 9.84250 0.00000
				CHANNELS 3 Xrotation Yrotation Zrotation
				JOINT RightArm
				{
					OFFSET -7.21510 -0.00003 0.00000
					CHANNELS 3 Xrotation Yrotation Zrotation
					JOINT RightForeArm
					{
						OFFSET -10.66411 -0.00004 0.00000
						CHANNELS 3 Xrotation Yrotation Zrotation
						JOINT RightHand
						{
							OFFSET -8.93656 -0.00003 0.00000
							CHANNELS 3 Xrotation Yrotation Zrotation
							JOINT R_Wrist_End
							{
								OFFSET -5.41338 -0.00002 0.00000
								CHANNELS 3 Xrotation Yrotation Zrotation
							}
						}
					}
				}
			}
		}
	}
}
MOTION
Frames: 7
Frame Time: 0.008333
 0.5526 33.8609 3.0890 -0.8442 -1.9848 -2.3596 5.2547 25.1969 8.4334 2.5765 -0.0000 -0.0000 -1.9741 -0.5985 -0.3247 -34.9876 0.0000 -0.0000 6.4185 6.8418 -1.3387 3.6464 -0.0000 0.0000 -1.1867 -11.3915 0.7262 -30.8271 0.0000 -0.0000 -15.9755 -1.7029 -3.9856 27.7862 4.0955 4.2077 -16.2406 -4.8704 9.8268 -17.6911 -15.1468 -18.8289 9.5475 8.4900 14.8879 -22.4034 16.1922 -35.1275 -0.0000 -13.0973 -0.0000 -5.2223 2.2037 21.3104 -0.0000 0.0000 -0.0000 8.1790 -5.2972 -16.0741 -11.5034 -4.3523 27.7953 -0.0001 20.8603 0.0000 -19.6822 -12.7458 -19.3108 -0.0000 -0.0000 0.0000
 0.5546 33.8644 3.0857 -0.8313 -1.9870 -2.3415 5.2812 25.1646 8.3939 2.5267 -0.0000 -0.0000 -1.9182 -0.5903 -0.3224 -35.0195 0.0000 -0.0000 6.3873 6.8958 -1.3572 3.6606 -0.0000 -0.0000 -1.1343 -11.4083 0.7169 -30.8732 0.0000 -0.0000 -15.9607 -1.7388 -4.0133 27.7580 4.0728 4.2285 -16.0337 -4.3601 10.5276 -18.4607 -15.1964 -19.9947 9.5050 8.5416 14.7978 -22.3520 16.1779 -35.0262 -0.0000 -13.1557 -0.0000 -5.2357 2.3113 21.2253 -0.0000 0.0000 -0.0000 8.1708 -5.2590 -16.0355 -11.5415 -4.3260 27.6931 -0.0001 20.8335 0.0000 -19.6403 -12.7372 -19.3123 -0.0000 -0.0000 0.0000
 0.5548 33.8647 3.0838 -0.8295 -1.9747 -2.3306 5.2635 25.2149 8.3895 2.5386 -0.0000 0.0000 -1.8924 -0.6382 -0.3237 -35.0518 0.0000 -0.0000 6.3735 6.8366 -1.3613 3.6863 -0.0000 0.0000 -1.1452 -11.3974 0.7784 -30.8632 0.0000 0.0000 -15.9494 -1.7446 -4.0305 27.7334 4.0793 4.2428 -15.8161 -4.0085 10.9395 -19.1068 -15.3345 -20.7068 9.4866 8.5661 14.8246 -22.2762 16.1169 -35.0633 -0.0000 -13.1852 -0.0000 -5.3778 2.2574 21.1834 -0.0000 -0.0000 0.0000 8.1326 -5.2503 -16.0403 -11.4740 -4.3334 27.6621 -0.0001 20.8196 0.0000 -19.6645 -12.6573 -19.2815 -0.0000 0.0000 -0.0000
 0.5512 33.8650 3.0811 -0.8297 -1.9939 -2.3259 5.2466 25.1731 8.3926 2.5810 -0.0000 -0.0000 -1.9308 -0.5888 -0.3361 -35.0111 0.0000 0.0000 6.3745 6.8831 -1.3573 3.6723 -0.0000 0.0000 -1.1434 -11.4537 0.7561 -30.8975 0.0000 -0.0000 -15.9461 -1.7467 -4.0397 27.7221 4.0770 4.2400 -15.7332 -3.8836 11.0223 -19.2756 -15.3996 -20.8356 9.5149 8.5692 14.8430 -22.3162 16.1544 -35.0269 -0.0000 -13.1500 -0.0000 -5.1727 2.2638 21.1426 -0.0000 0.0000 -0.0000 8.1804 -5.2515 -16.0530 -11.5733 -4.3317 27.6671 -0.0001 20.7912 0.0000 -19.6866 -12.6384 -19.3017 -0.0000 0.0000 -0.0000
 0.5497 33.8656 3.0792 -0.8262 -1.9808 -2.3263 5.2721 25.1165 8.3863 2.5290 -0.0000 0.0000 -1.8941 -0.5550 -0.3047 -35.0222 0.0000 -0.0000 6.3581 6.8602 -1.3496 3.6972 -0.0000 0.0000 -1.1686 -11.4746 0.7558 -30.8537 0.0000 -0.0000 -15.9469 -1.7504 -4.0402 27.7242 4.0749 4.2433 -15.6946 -3.7988 11.0802 -19.3928 -15.4254 -20.9329 9.5060 8.5782 14.8503 -22.3010 16.1543 -34.9959 -0.0000 -13.2153 -0.0000 -5.1913 2.3229 21.1175 -0.0000 0.0000 -0.0000 8.1659 -5.2601 -16.0571 -11.5359 -4.3249 27.6554 -0.0001 20.7662 0.0000 -19.6678 -12.5336 -19.2793 -0.0000 0.0000 -0.0000
 0.5493 33.8662 3.0764 -0.8262 -1.9835 -2.3257 5.2521 25.1667 8.3880 2.5369 -0.0000 0.0000 -1.8676 -0.5814 -0.3244 -35.0448 0.0000 0.0000 6.3616 6.8042 -1.3484 3.6682 -0.0000 0.0000 -1.1361 -11.4319 0.7629 -30.8729 0.0000 0.0000 -15.9444 -1.7561 -4.0425 27.7267 4.0721 4.2480 -15.6836 -3.7482 11.1250 -19.4837 -15.4420 -21.0094 9.5050 8.5723 14.8723 -22.2829 16.1566 -34.9753 -0.0000 -13.1637 -0.0000 -5.2125 2.2925 21.0899 -0.0000 0.0000 -0.0000 8.1870 -5.2612 -16.0631 -11.5966 -4.3379 27.6286 -0.0001 20.7777 0.0000 -19.6844 -12.5757 -19.2410 -0.0000 -0.0000 0.0000
 0.5440 33.8651 3.0756 -0.8258 -1.9992 -2.3217 5.2498 25.1168 8.3915 2.5695 0.0000 0.0000 -1.9112 -0.5080 -0.2984 -34.9548 0.0000 0.0000 6.3492 6.8999 -1.3403 3.6954 -0.0000 0.0000 -1.1721 -11.5020 0.7172 -30.8416 0.0000 0.0000 -15.9409 -1.7549 -4.0540 27.7203 4.0749 4.2461 -15.6695 -3.7019 11.1732 -19.5481 -15.4768 -21.0647 9.4837 8.5802 14.8960 -22.2468 16.1536 -34.9322 -0.0000 -13.1528 -0.0000 -5.1186 2.2893 21.0417 -0.0000 0.0000 -0.0000 8.1764 -5.2469 -16.0718 -11.5310 -4.3092 27.6279 -0.0001 20.7325 0.0000 -19.7425 -12.4817 -19.2606 -0.0000 0.0000 -0.0000
